<svg xmlns="http://www.w3.org/2000/svg" width="159.759" height="175.991" viewBox="0 0 159.759 175.991">
    <path fill="#EFF0F1" stroke="#4555C7" stroke-width="3" stroke-linecap="round" stroke-linejoin="round" stroke-miterlimit="10" d="M1.5 168.41h127.38"/>
    <circle fill="#EFF0F1" stroke="#4555C7" stroke-width="3" stroke-linecap="round" stroke-linejoin="round" stroke-miterlimit="10" cx="44.813" cy="141.524" r="24.064"/>
    <path fill="#4555C7" d="M43.884 143.541c-3.715-1.095-8.407-2.112-8.407-7.703 0-5.005 3.754-8.29 8.407-8.798v-1.212c0-1.055 0-1.838 1.056-1.838s1.056.783 1.056 1.838v1.212c2.346.079 6.843 1.017 6.843 3.832 0 1.525-1.016 2.894-2.62 2.894-1.369 0-2.464-.86-4.223-1.055v5.201c3.793 1.094 8.876 2.464 8.876 8.759 0 5.201-3.988 8.564-8.876 8.955v1.251c0 .9 0 1.838-1.056 1.838s-1.056-.939-1.056-1.838v-1.212c-3.167-.078-8.524-.939-8.524-4.301 0-1.525 1.016-2.777 2.62-2.777 1.681 0 3.637 1.252 5.904 1.486v-6.532zm0-10.793c-1.173.313-2.072 1.134-2.072 2.385 0 1.017.821 1.604 2.072 2.073v-4.458zm2.111 17.166c1.642-.391 2.542-1.642 2.542-3.167 0-1.291-1.056-2.034-2.542-2.542v5.709z"/>
    <path fill="#EFF0F1" stroke="#4555C7" stroke-width="3" stroke-linecap="round" stroke-linejoin="round" stroke-miterlimit="10" d="M61.142 101.628s-4.011-6.303-8.594-6.875c0 0 2.865-9.167-4.297-11.173 0 0 16.043-3.151 18.908-12.032 0 0 5.73 7.735 18.048 6.016 0 0-10.313 12.319-12.032 18.048 0 0-31.226 13.281-31.799 22.449s7.735 18.048 16.329 14.61c8.594-3.438 29.221-16.433 29.221-16.433s16.616-3.151 25.783-16.329 24.064-40.966 25.783-47.269l-45.55-19.767-46.41 16.33S26.479 77.278 26.765 83.58c.286 6.303 16.329 30.94 16.329 30.94"/>
    <path fill="#4555C7" stroke="#4555C7" stroke-width="3" stroke-linecap="round" stroke-linejoin="round" stroke-miterlimit="10" d="M102.394 6.5L91.239 32.875l1.844.466 49.347 21.287 15.829-24.989z"/>
    <path fill="#4555C7" stroke="#4555C7" stroke-width="5" stroke-linecap="round" stroke-linejoin="round" stroke-miterlimit="10" d="M56.257 113.605l4.694 7.824s-5.738 6.781-10.171 1.565 5.477-9.389 5.477-9.389z"/>
</svg>
