<svg xmlns="http://www.w3.org/2000/svg" width="117.409" height="163" viewBox="0 0 117.409 163">
    <path fill="none" stroke="#FFF" stroke-width="3" stroke-linecap="round" stroke-miterlimit="10" d="M59.134 98.962V23.005h-.022C58.66 11.052 48.832 1.5 36.769 1.5s-21.891 9.552-22.344 21.505h-.022v75.956C6.526 105.43 1.5 115.243 1.5 126.231c0 19.478 15.79 35.269 35.269 35.269s35.269-15.79 35.269-35.269c0-10.988-5.026-20.801-12.904-27.269z"/>
    <path fill="#FFF" d="M36.769 152.038c-14.23 0-25.806-11.577-25.806-25.806a25.793 25.793 0 0 1 9.036-19.604l3.007-2.575V87.921h27.527v16.132l3.007 2.575a25.788 25.788 0 0 1 9.036 19.604c-.001 14.229-11.578 25.806-25.807 25.806z"/>
    <path fill="none" stroke="#FFF" stroke-width="3" stroke-linecap="round" stroke-miterlimit="10" d="M83.22 10.962h32.689M83.22 25.586h32.689M83.22 40.21h32.689M83.22 54.833h32.689M83.22 69.457h32.689M83.22 84.081h32.689M83.22 98.704h32.689M83.22 113.328h32.689"/>
</svg>
