<?xml version="1.0" encoding="utf-8"?>
<!-- Generator: Adobe Illustrator 19.1.0, SVG Export Plug-In . SVG Version: 6.00 Build 0)  -->
<svg version="1.1" id="Layer_1" xmlns="http://www.w3.org/2000/svg" xmlns:xlink="http://www.w3.org/1999/xlink" x="0px" y="0px"
	 width="41.4px" height="41.4px" viewBox="5 -4.4 41.4 41.4" enable-background="new 5 -4.4 41.4 41.4" xml:space="preserve">
<g>
	<path fill="#424647" d="M33.7,32.9H17.7c-4.8,0-8.6-3.8-8.6-8.6V8.3c0-4.7,3.8-8.6,8.6-8.6h15.9c4.7,0,8.6,3.8,8.6,8.6v15.9
		C42.2,29,38.4,32.9,33.7,32.9z M17.7,3c-3,0-5.3,2.4-5.3,5.3v15.9c0,3,2.4,5.3,5.3,5.3h15.9c3,0,5.3-2.4,5.3-5.3V8.3
		c0-3-2.4-5.3-5.3-5.3C33.7,3,17.7,3,17.7,3z"/>
	<path fill="#424647" d="M25.8,25.3c-4.8,0-8.7-3.9-8.7-8.7s3.8-8.8,8.7-8.8s8.7,3.9,8.7,8.7S30.6,25.3,25.8,25.3z M25.8,11.1
		c-3,0-5.4,2.4-5.4,5.4s2.4,5.4,5.4,5.4s5.4-2.4,5.4-5.4S28.8,11.1,25.8,11.1z M34.5,9.6c-1.1,0-2.1-0.9-2.1-2.1s0.9-2.1,2.1-2.1
		c1.1,0,2.1,0.9,2.1,2.1S35.7,9.6,34.5,9.6z"/>
</g>
</svg>
