<svg xmlns="http://www.w3.org/2000/svg" width="41.437" height="41.437" viewBox="0 0 41.437 41.437">
    <g fill="#4555C7">
        <path d="M30.663 41.437h-19.89C4.833 41.437 0 36.604 0 30.663v-19.89C0 4.833 4.833 0 10.774 0h19.89c5.941 0 10.774 4.833 10.774 10.774v19.89c-.001 5.94-4.834 10.773-10.775 10.773zM10.774 4.144a6.637 6.637 0 0 0-6.63 6.63v19.89a6.637 6.637 0 0 0 6.63 6.63h19.89a6.637 6.637 0 0 0 6.63-6.63v-19.89a6.637 6.637 0 0 0-6.63-6.63h-19.89z"/>
        <path d="M20.857 31.906c-6.017 0-10.912-4.895-10.912-10.912s4.895-10.912 10.912-10.912 10.912 4.895 10.912 10.912-4.896 10.912-10.912 10.912zm0-17.679c-3.732 0-6.768 3.036-6.768 6.768s3.036 6.768 6.768 6.768 6.768-3.036 6.768-6.768-3.037-6.768-6.768-6.768zM31.837 12.293c-1.409 0-2.555-1.146-2.555-2.555s1.146-2.555 2.555-2.555c1.409 0 2.555 1.146 2.555 2.555s-1.146 2.555-2.555 2.555z"/>
    </g>
</svg>
