<?xml version="1.0" encoding="utf-8"?>
<!-- Generator: Adobe Illustrator 19.1.0, SVG Export Plug-In . SVG Version: 6.00 Build 0)  -->
<svg version="1.1" id="Layer_1" xmlns="http://www.w3.org/2000/svg" xmlns:xlink="http://www.w3.org/1999/xlink" x="0px" y="0px"
	 width="43.7px" height="46.7px" viewBox="0 0 43.7 46.7" enable-background="new 0 0 43.7 46.7" xml:space="preserve">
<path fill="#FFFFFF" d="M43.4,45L28.8,29.7c2.9-3.2,4.6-7.4,4.6-12.1c0-9.7-7.5-17.6-16.7-17.6C7.5-0.1,0,7.8,0,17.5
	c0,9.7,7.5,17.6,16.7,17.6c4.1,0,7.9-1.6,10.8-4.2l14.6,15.4c0.2,0.2,0.4,0.3,0.7,0.3s0.5-0.1,0.7-0.3C43.7,46,43.7,45.4,43.4,45z
	 M1.8,17.5c0-8.6,6.7-15.7,14.9-15.7c8.2,0,14.9,7,14.9,15.7c0,8.6-6.7,15.7-14.9,15.7C8.5,33.2,1.8,26.2,1.8,17.5z"/>
</svg>
