<?xml version="1.0" encoding="utf-8"?>
<!-- Generator: Adobe Illustrator 19.1.0, SVG Export Plug-In . SVG Version: 6.00 Build 0)  -->
<svg version="1.1" id="Layer_1" xmlns="http://www.w3.org/2000/svg" xmlns:xlink="http://www.w3.org/1999/xlink" x="0px" y="0px"
	 width="24px" height="16.4px" viewBox="16.4 8.6 24 16.4" enable-background="new 16.4 8.6 24 16.4" xml:space="preserve">
<g>
	<g>
		<path fill="#FFFFFF" d="M39.8,9.6H16.9c-0.3,0-0.5-0.2-0.5-0.5s0.2-0.5,0.5-0.5h22.9c0.3,0,0.5,0.2,0.5,0.5S40.1,9.6,39.8,9.6z"/>
	</g>
	<g>
		<path fill="#FFFFFF" d="M39.8,17.3H16.9c-0.3,0-0.5-0.2-0.5-0.5c0-0.3,0.2-0.5,0.5-0.5h22.9c0.3,0,0.5,0.2,0.5,0.5
			C40.3,17,40.1,17.3,39.8,17.3z"/>
	</g>
	<g>
		<path fill="#FFFFFF" d="M39.8,24.9H16.9c-0.3,0-0.5-0.2-0.5-0.5s0.2-0.5,0.5-0.5h22.9c0.3,0,0.5,0.2,0.5,0.5S40.1,24.9,39.8,24.9z
			"/>
	</g>
</g>
</svg>
