<?xml version="1.0" encoding="utf-8"?>
<!-- Generator: Adobe Illustrator 19.1.0, SVG Export Plug-In . SVG Version: 6.00 Build 0)  -->
<svg version="1.1" id="Layer_1" xmlns="http://www.w3.org/2000/svg" xmlns:xlink="http://www.w3.org/1999/xlink" x="0px" y="0px"
	 width="41.6px" height="47.3px" viewBox="5 -7.3 41.6 47.3" enable-background="new 5 -7.3 41.6 47.3" xml:space="preserve">
<path fill="#FFFFFF" d="M42.4,8.1c0,0.4,0,0.7,0,1.1c0,11.3-8.6,24.3-24.3,24.3c-4.6,0-9.2-1.3-13.1-3.8c0.7,0.1,1.3,0.1,2.1,0.1
	c4,0,7.7-1.3,10.6-3.6c-3.7-0.1-6.9-2.4-8-5.9c0.5,0.1,1.1,0.1,1.6,0.1c0.8,0,1.5-0.1,2.2-0.3c-4-0.8-6.8-4.3-6.8-8.4v-0.1
	c1.2,0.7,2.5,1,3.9,1.1c-2.4-1.6-3.8-4.2-3.8-7.1c0-1.6,0.4-3,1.2-4.3c4.3,5.3,10.7,8.6,17.6,8.9c-0.1-0.6-0.2-1.3-0.2-2
	c0-4.7,3.8-8.5,8.5-8.5c0,0,0,0,0,0c2.4,0,4.6,1,6.2,2.7C42,2,43.8,1.3,45.5,0.3c-0.6,2-2,3.6-3.8,4.7c1.7-0.2,3.4-0.7,4.9-1.3
	C45.5,5.4,44,6.9,42.4,8.1z"/>
</svg>
