<svg xmlns="http://www.w3.org/2000/svg" width="41.638" height="47.346" viewBox="0 0 41.638 47.346">
    <path fill="#FFF" d="M39.709 42.96c-.5 2.088-2.191 3.62-4.227 3.83-4.862.556-9.776.556-14.663.556s-9.8 0-14.663-.556c-2.036-.211-3.751-1.743-4.227-3.83-.687-2.957-.687-6.208-.687-9.248 0-3.064.024-6.287.687-9.245.5-2.088 2.191-3.62 4.251-3.858 4.838-.528 9.752-.528 14.639-.528s9.8 0 14.663.528c2.036.238 3.751 1.77 4.227 3.858.687 2.957.687 6.18.687 9.245 0 3.04-.024 6.29-.687 9.248zM12.416 27.134V24.65h-8.24v2.485h2.771v15.032H9.59V27.134h2.826zM16.723 0l-3.195 10.542v7.161h-2.643v-7.161c-.238-1.294-.766-3.144-1.612-5.601A357.549 357.549 0 0 1 7.557 0h2.799l1.877 6.95L14.028 0h2.695zm2.83 42.166V29.115H17.2v9.987c-.528.742-1.028 1.111-1.505 1.111-.317 0-.504-.186-.556-.556-.028-.079-.028-.369-.028-.925v-9.618h-2.35v10.332c0 .925.079 1.532.211 1.929.211.659.766.977 1.532.977.845 0 1.743-.528 2.695-1.612v1.425h2.354zm4.251-28.746c0 1.401-.238 2.457-.738 3.12-.663.897-1.587 1.346-2.802 1.346-1.187 0-2.112-.449-2.774-1.346-.5-.687-.738-1.719-.738-3.12V8.8c0-1.401.238-2.433.738-3.092.663-.901 1.587-1.349 2.774-1.349 1.215 0 2.14.449 2.802 1.349.5.659.738 1.691.738 3.092v4.62zm-2.405-5.097c0-1.215-.342-1.826-1.135-1.826-.766 0-1.135.611-1.135 1.826v5.549c0 1.215.369 1.846 1.135 1.846.794 0 1.135-.632 1.135-1.846V8.323zm7.136 24.729c0-1.215-.055-2.088-.238-2.616-.29-.977-.952-1.48-1.877-1.48-.873 0-1.691.476-2.457 1.429V24.65h-2.35v17.517h2.35V40.9c.794.977 1.612 1.453 2.457 1.453.925 0 1.587-.5 1.877-1.453.183-.556.238-1.429.238-2.643v-5.205zm-2.353 5.391c0 1.187-.342 1.77-1.028 1.77-.397 0-.794-.186-1.191-.583v-7.951c.397-.397.794-.583 1.191-.583.687 0 1.028.611 1.028 1.77v5.577zm6.474-20.74H30.25V16.25c-.949 1.108-1.85 1.636-2.719 1.636-.766 0-1.322-.317-1.56-.977-.131-.397-.211-1.032-.211-1.981V4.517h2.402v9.697c0 .556 0 .873.028.925.052.369.238.58.556.58.476 0 .977-.369 1.505-1.135V4.517h2.405v13.186zm4.807 19.946h-2.402c0 .952-.028 1.48-.055 1.612-.131.635-.473.952-1.056.952-.818 0-1.215-.607-1.215-1.822v-2.302h4.728V33.37c0-1.401-.235-2.405-.711-3.064-.687-.901-1.612-1.349-2.802-1.349-1.215 0-2.14.449-2.826 1.349-.504.659-.738 1.663-.738 3.064v4.569c0 1.401.262 2.433.766 3.064.687.901 1.612 1.349 2.85 1.349 1.242 0 2.222-.476 2.854-1.401.293-.421.504-.897.556-1.425.052-.238.052-.766.052-1.532v-.345zm-2.35-3.541h-2.378v-1.215c0-1.187.397-1.798 1.187-1.798.794 0 1.191.611 1.191 1.798v1.215z"/>
</svg>
