<?xml version="1.0" encoding="utf-8"?>
<!-- Generator: Adobe Illustrator 19.1.0, SVG Export Plug-In . SVG Version: 6.00 Build 0)  -->
<svg version="1.1" id="Layer_1" xmlns="http://www.w3.org/2000/svg" xmlns:xlink="http://www.w3.org/1999/xlink" x="0px" y="0px"
	 width="41.4px" height="41.4px" viewBox="5.1 -4.4 41.4 41.4" enable-background="new 5.1 -4.4 41.4 41.4" xml:space="preserve">
<path fill="#424647" d="M40.7,31.5c-0.4,1.6-1.7,2.9-3.3,3C33.6,35,29.7,35,25.8,35s-7.7,0-11.6-0.4c-1.6-0.2-3-1.4-3.3-3
	c-0.5-2.3-0.5-4.9-0.5-7.3c0-2.4,0-5,0.5-7.3c0.4-1.6,1.7-2.9,3.4-3c3.8-0.4,7.7-0.4,11.6-0.4s7.7,0,11.6,0.4c1.6,0.2,3,1.4,3.3,3
	c0.5,2.3,0.5,4.9,0.5,7.3C41.3,26.6,41.2,29.2,40.7,31.5z M19.2,19.1v-2h-6.5v2h2.2v11.9H17V19.1H19.2z M22.6-2.4L20.1,6v5.7H18V6
	c-0.2-1-0.6-2.5-1.3-4.4c-0.5-1.3-0.9-2.6-1.4-3.9h2.2L19,3.1l1.4-5.5H22.6z M24.8,30.9V20.6H23v7.9c-0.4,0.6-0.8,0.9-1.2,0.9
	c-0.3,0-0.4-0.1-0.4-0.4c0-0.1,0-0.3,0-0.7v-7.6h-1.9v8.2c0,0.7,0.1,1.2,0.2,1.5c0.2,0.5,0.6,0.8,1.2,0.8c0.7,0,1.4-0.4,2.1-1.3v1.1
	L24.8,30.9L24.8,30.9z M28.2,8.2c0,1.1-0.2,1.9-0.6,2.5c-0.5,0.7-1.3,1.1-2.2,1.1c-0.9,0-1.7-0.4-2.2-1.1c-0.4-0.5-0.6-1.4-0.6-2.5
	V4.6c0-1.1,0.2-1.9,0.6-2.4c0.5-0.7,1.3-1.1,2.2-1.1c1,0,1.7,0.4,2.2,1.1c0.4,0.5,0.6,1.3,0.6,2.4V8.2z M26.3,4.2
	c0-1-0.3-1.4-0.9-1.4c-0.6,0-0.9,0.5-0.9,1.4v4.4c0,1,0.3,1.5,0.9,1.5c0.6,0,0.9-0.5,0.9-1.5V4.2z M31.9,23.7c0-1,0-1.6-0.2-2.1
	c-0.2-0.8-0.8-1.2-1.5-1.2c-0.7,0-1.3,0.4-1.9,1.1v-4.5h-1.9v13.8h1.9v-1c0.6,0.8,1.3,1.1,1.9,1.1c0.7,0,1.3-0.4,1.5-1.1
	c0.1-0.4,0.2-1.1,0.2-2.1V23.7z M30.1,28c0,0.9-0.3,1.4-0.8,1.4c-0.3,0-0.6-0.1-0.9-0.5v-6.3c0.3-0.3,0.6-0.5,0.9-0.5
	c0.5,0,0.8,0.5,0.8,1.4V28z M35.2,11.6h-1.9v-1.1c-0.7,0.9-1.5,1.3-2.1,1.3c-0.6,0-1-0.3-1.2-0.8c-0.1-0.3-0.2-0.8-0.2-1.6V1.2h1.9
	v7.7c0,0.4,0,0.7,0,0.7c0,0.3,0.2,0.5,0.4,0.5c0.4,0,0.8-0.3,1.2-0.9V1.2h1.9C35.2,1.2,35.2,11.6,35.2,11.6z M39,27.4h-1.9
	c0,0.8,0,1.2,0,1.3c-0.1,0.5-0.4,0.8-0.8,0.8c-0.6,0-1-0.5-1-1.4v-1.8H39V24c0-1.1-0.2-1.9-0.6-2.4c-0.5-0.7-1.3-1.1-2.2-1.1
	c-1,0-1.7,0.4-2.2,1.1c-0.4,0.5-0.6,1.3-0.6,2.4v3.6c0,1.1,0.2,1.9,0.6,2.4c0.5,0.7,1.3,1.1,2.2,1.1c1,0,1.8-0.4,2.3-1.1
	c0.2-0.3,0.4-0.7,0.4-1.1c0-0.2,0-0.6,0-1.2L39,27.4L39,27.4z M37.1,24.6h-1.9v-1c0-0.9,0.3-1.4,0.9-1.4c0.6,0,0.9,0.5,0.9,1.4V24.6
	z"/>
</svg>
